<?xml version="1.0" standalone="no"?>
<!DOCTYPE svg PUBLIC "-//W3C//DTD SVG 20010904//EN"
 "http://www.w3.org/TR/2001/REC-SVG-20010904/DTD/svg10.dtd">
<svg version="1.0" xmlns="http://www.w3.org/2000/svg"
 width="1501.000000pt" height="1501.000000pt" viewBox="0 0 1501.000000 1501.000000"
 preserveAspectRatio="xMidYMid meet">
<metadata>
Created by potrace 1.11, written by Peter Selinger 2001-2013
</metadata>
<g transform="translate(0.000000,1501.000000) scale(0.100000,-0.100000)"
fill="#000000" stroke="none">
<path d="M4908 12695 c-1 -1 -28 -5 -58 -8 -182 -18 -499 -114 -681 -207 -24
-13 -46 -23 -49 -23 -13 -1 -204 -116 -275 -165 -167 -116 -274 -217 -425
-402 -24 -30 -51 -62 -60 -70 -8 -8 -40 -44 -70 -80 -30 -36 -57 -67 -60 -70
-3 -3 -41 -48 -85 -100 -44 -52 -94 -110 -111 -130 -18 -19 -120 -138 -229
-265 -108 -126 -216 -252 -240 -280 -23 -27 -104 -122 -180 -210 -75 -88 -147
-171 -159 -185 -12 -14 -118 -137 -236 -275 -118 -137 -217 -252 -220 -255 -3
-3 -43 -50 -90 -105 -111 -131 -115 -135 -205 -240 -119 -137 -159 -184 -339
-395 -92 -107 -175 -204 -185 -215 -19 -21 -324 -377 -351 -409 -8 -10 -26
-31 -40 -46 -14 -15 -36 -40 -49 -56 -43 -52 -136 -159 -141 -164 -22 -19
-175 -208 -197 -242 -119 -188 -173 -387 -167 -618 2 -123 6 -148 31 -250 45
-181 112 -298 296 -513 77 -89 158 -184 181 -211 22 -27 46 -54 51 -60 6 -6
51 -58 100 -116 49 -58 92 -107 95 -110 4 -3 33 -37 66 -76 55 -66 558 -652
664 -774 44 -51 223 -259 262 -305 9 -11 27 -31 38 -45 25 -29 95 -110 158
-184 24 -28 51 -60 61 -71 24 -27 201 -234 610 -710 189 -220 357 -416 375
-436 40 -47 99 -115 222 -259 54 -63 108 -126 120 -140 12 -14 41 -47 64 -75
173 -204 242 -273 371 -370 223 -167 505 -308 772 -385 56 -16 116 -32 132
-35 17 -3 68 -12 115 -21 78 -15 486 -17 4720 -18 2549 -1 4661 2 4693 6 31 4
72 10 90 13 48 9 170 52 210 74 19 10 45 25 58 33 34 19 128 91 169 130 108
101 225 302 245 420 3 18 8 40 10 48 2 8 7 31 11 50 4 19 8 1997 8 4395 2
4536 3 4428 -39 4570 -78 270 -305 504 -576 595 -149 51 103 48 -4846 48
-2547 0 -4633 -1 -4635 -3z m3562 -2374 c113 -32 123 -41 738 -655 326 -325
595 -593 598 -595 2 -3 273 263 602 591 547 546 602 598 662 626 137 65 261
64 400 0 59 -28 110 -76 578 -542 300 -298 530 -535 553 -570 46 -69 68 -137
73 -226 4 -81 -8 -138 -46 -220 -28 -60 -79 -114 -627 -663 l-596 -597 597
-598 c418 -419 603 -610 619 -642 70 -140 72 -282 7 -418 -30 -61 -78 -112
-548 -583 -326 -326 -536 -530 -572 -553 -129 -82 -297 -91 -438 -24 -57 28
-130 97 -682 649 l-578 577 -592 -592 c-367 -367 -610 -603 -638 -618 -136
-76 -287 -81 -427 -13 -67 33 -106 70 -597 561 -488 489 -529 531 -561 598
-77 155 -62 328 38 463 20 26 294 306 610 621 l573 573 -595 597 c-511 512
-600 605 -624 655 -71 146 -67 300 11 437 16 27 240 259 552 570 563 563 565
566 695 595 62 15 155 12 215 -4z"/>
</g>
</svg>
